<svg width="797" height="165" viewBox="0 0 797 165" fill="none" xmlns="http://www.w3.org/2000/svg">
<g clip-path="url(#clip0_1093_14421)">
<mask id="mask0_1093_14421" style="mask-type:luminance" maskUnits="userSpaceOnUse" x="0" y="0" width="797" height="165">
<path d="M797 0H0V165H797V0Z" fill="white"/>
</mask>
<g mask="url(#mask0_1093_14421)">
<path d="M159.046 62.9975C159.046 65.2694 158.897 67.1502 158.599 68.64C158.338 70.2415 157.76 71.5078 156.865 72.4389C155.971 73.3327 154.852 74.0031 153.51 74.4501C152.205 74.8597 150.266 75.0646 147.694 75.0646H121.578V89.6457H117.048V52.3829H147.974C152.037 52.3829 154.889 53.1278 156.53 54.6176C158.208 56.1073 159.046 58.9007 159.046 62.9975ZM154.349 63.221C154.349 60.6511 153.864 58.8448 152.895 57.802C151.926 56.7219 150.136 56.1818 147.526 56.1818H121.578V71.3216H144.954C148.645 71.3216 151.124 70.856 152.392 69.9249C153.696 68.9938 154.349 66.7592 154.349 63.221Z" fill="#1E7FBA"/>
<path d="M209.474 63.4444C209.474 66.7592 208.989 69.0497 208.02 70.316C207.05 71.5823 204.888 72.4575 201.533 72.9417C203.956 73.2769 205.764 73.8914 206.957 74.7853C208.188 75.6419 208.803 77.2247 208.803 79.5339V89.6457H204.329V81.3775C204.329 78.6586 203.751 76.8523 202.595 75.9585C201.439 75.0273 199.389 74.5618 196.444 74.5618H170.998V89.6457H166.469V52.3829H196.835C201.309 52.3829 204.534 53.1278 206.51 54.6176C208.486 56.1073 209.474 59.0496 209.474 63.4444ZM204.776 63.1651C204.776 60.2973 204.087 58.4165 202.707 57.5226C201.365 56.6288 199.091 56.1818 195.884 56.1818H170.998V70.8188H195.996C199.203 70.8188 201.458 70.316 202.763 69.3104C204.105 68.3048 204.776 66.2564 204.776 63.1651Z" fill="#1E7FBA"/>
<path d="M254.282 68.4724V72.2154H223.02V85.9026H255.847V89.6457H218.49V52.3829H255.456V56.1818H223.02V68.4724H254.282Z" fill="#1E7FBA"/>
<path d="M304.708 62.9975C304.708 65.2694 304.558 67.1502 304.26 68.64C303.999 70.2415 303.421 71.5078 302.527 72.4389C301.632 73.3327 300.513 74.0031 299.171 74.4501C297.866 74.8597 295.928 75.0646 293.355 75.0646H267.239V89.6457H262.709V52.3829H293.635C297.699 52.3829 300.551 53.1278 302.191 54.6176C303.869 56.1073 304.708 58.9007 304.708 62.9975ZM300.01 63.221C300.01 60.6511 299.525 58.8448 298.556 57.802C297.587 56.7219 295.797 56.1818 293.187 56.1818H267.239V71.3216H290.615C294.306 71.3216 296.785 70.856 298.053 69.9249C299.358 68.9938 300.01 66.7592 300.01 63.221Z" fill="#1E7FBA"/>
<path d="M312.424 89.6457H307.111L329.145 52.3829H335.185L357.386 89.6457H352.185L347.32 81.2657H317.177L312.424 89.6457ZM319.302 77.5227H345.195L332.165 55.679L319.302 77.5227Z" fill="#1E7FBA"/>
<path d="M408.457 63.4444C408.457 66.7592 407.973 69.0497 407.003 70.316C406.034 71.5823 403.872 72.4575 400.516 72.9417C402.94 73.2769 404.748 73.8914 405.941 74.7853C407.171 75.6419 407.786 77.2247 407.786 79.5339V89.6457H403.312V81.3775C403.312 78.6586 402.735 76.8523 401.579 75.9585C400.423 75.0273 398.373 74.5618 395.427 74.5618H369.982V89.6457H365.452V52.3829H395.819C400.293 52.3829 403.518 53.1278 405.493 54.6176C407.469 56.1073 408.457 59.0496 408.457 63.4444ZM403.76 63.1651C403.76 60.2973 403.07 58.4165 401.691 57.5226C400.349 56.6288 398.074 56.1818 394.868 56.1818H369.982V70.8188H394.98C398.186 70.8188 400.442 70.316 401.747 69.3104C403.089 68.3048 403.76 66.2564 403.76 63.1651Z" fill="#1E7FBA"/>
<path d="M453.265 68.4724V72.2154H422.004V85.9026H454.831V89.6457H417.474V52.3829H454.44V56.1818H422.004V68.4724H453.265Z" fill="#1E7FBA"/>
<path d="M152.838 123.039V126.782H121.576V140.47H154.404V144.213H117.047V106.95H154.012V110.749H121.576V123.039H152.838Z" fill="#21DB94"/>
<path d="M209.377 106.95L190.922 124.38L211.614 144.213H204.791L186.672 126.615L168.609 144.213H161.786L182.478 124.38L163.911 106.95H170.51L186.672 122.201L202.666 106.95H209.377Z" fill="#21DB94"/>
<path d="M234.29 144.213V110.749H215.5V106.95H257.722V110.749H238.82V144.213H234.29Z" fill="#21DB94"/>
<path d="M305.713 118.011C305.713 121.326 305.228 123.617 304.259 124.883C303.29 126.149 301.127 127.024 297.772 127.509C300.195 127.844 302.003 128.458 303.196 129.352C304.427 130.209 305.042 131.792 305.042 134.101V144.213H300.568V135.944C300.568 133.226 299.99 131.419 298.834 130.525C297.679 129.594 295.628 129.129 292.683 129.129H267.238V144.213H262.708V106.95H293.074C297.548 106.95 300.773 107.695 302.749 109.185C304.725 110.674 305.713 113.617 305.713 118.011ZM301.015 117.732C301.015 114.864 300.326 112.983 298.946 112.09C297.604 111.196 295.33 110.749 292.124 110.749H267.238V125.386H292.235C295.442 125.386 297.697 124.883 299.002 123.877C300.344 122.872 301.015 120.823 301.015 117.732Z" fill="#21DB94"/>
<path d="M313.725 144.213H308.412L330.446 106.95H336.486L358.688 144.213H353.487L348.621 135.833H318.479L313.725 144.213ZM320.604 132.09H346.496L333.466 110.246L320.604 132.09Z" fill="#21DB94"/>
<path d="M396.545 144.436L386.926 144.604L382.788 144.66L374.511 144.268C367.875 143.598 364.557 140.041 364.557 133.598L364.333 126.503L364.389 120.19C364.389 119.557 364.464 118.794 364.613 117.9C364.762 116.969 364.967 115.814 365.228 114.436C365.676 112.015 366.85 110.172 368.751 108.905C370.653 107.602 373.244 106.95 376.525 106.95L380.719 106.671L385.417 106.615H386.759L392.127 106.559L397.384 106.726C398.614 106.726 400.329 106.969 402.529 107.453C404.766 107.937 406.313 109.147 407.171 111.084C408.066 113.021 408.513 115.609 408.513 118.849H404.039V118.514C404.039 116.875 403.927 115.516 403.703 114.436C403.517 113.319 403.07 112.537 402.361 112.09C401.653 111.643 400.218 111.252 398.055 110.916C397.011 110.805 395.8 110.712 394.42 110.637C393.041 110.563 391.419 110.525 389.555 110.525L383.459 110.693L377.308 110.861C375.779 110.861 374.493 111.028 373.449 111.363C372.442 111.661 371.678 112.071 371.156 112.592C370.261 113.412 369.721 114.641 369.534 116.28C369.385 117.881 369.273 119.185 369.199 120.19C369.124 121.196 369.087 122.145 369.087 123.039L369.031 128.067C369.031 132.76 369.497 136.019 370.429 137.844C371.398 139.632 373.934 140.525 378.035 140.525L386.759 140.637L395.091 140.525C398.484 140.525 400.851 140.134 402.194 139.352C403.573 138.533 404.263 136.54 404.263 133.375V131.866H408.96C408.96 136.745 408.215 140.06 406.723 141.81C405.269 143.561 401.877 144.436 396.545 144.436Z" fill="#21DB94"/>
<path d="M434.574 144.213V110.749H415.784V106.95H458.006V110.749H439.104V144.213H434.574Z" fill="#21DB94"/>
<path d="M792.17 144H758.122V106.648H762.658V140.248H792.17V144Z" fill="#21DB94"/>
<path d="M714.11 106.368L730.63 106.256C738.358 106.256 743.323 107.283 745.526 109.336C747.729 111.389 748.83 116.224 748.83 123.84V125.184V126.36C748.83 129.011 748.681 131.811 748.382 134.76C748.083 137.709 747.001 140.005 745.134 141.648C743.305 143.291 740.598 144.112 737.014 144.112L732.702 144.336L727.774 144.392H719.43H718.422C716.219 144.392 714.035 144.28 711.87 144.056C709.742 143.832 707.95 143.44 706.494 142.88C705.075 142.283 703.918 141.256 703.022 139.8C702.126 138.344 701.529 136.403 701.23 133.976C701.118 132.781 701.025 131.512 700.95 130.168C700.875 128.787 700.838 127.275 700.838 125.632C700.838 124.624 700.838 123.579 700.838 122.496C700.875 121.413 700.913 120.293 700.95 119.136C700.95 117.941 701.23 116.075 701.79 113.536C702.387 110.96 703.731 109.131 705.822 108.048C707.913 106.928 710.675 106.368 714.11 106.368ZM715.062 140.248L724.694 140.416H728.166H729.342C732.105 140.416 734.774 140.285 737.35 140.024C738.619 140.024 739.702 139.8 740.598 139.352C741.494 138.867 742.185 138.213 742.67 137.392C743.566 135.861 744.014 133.584 744.014 130.56L744.126 122.888V122.048V121.32V120.704C744.126 119.995 744.107 119.323 744.07 118.688C744.033 118.016 743.958 117.381 743.846 116.784C743.697 115.067 743.305 113.76 742.67 112.864C742.035 111.968 741.214 111.371 740.206 111.072C739.198 110.773 738.115 110.568 736.958 110.456L733.598 110.288L724.806 110.232L716.126 110.4C711.87 110.4 709.07 110.96 707.726 112.08C706.382 113.163 705.71 115.757 705.71 119.864L705.542 125.464V128.208C705.542 132.912 706.046 136.104 707.054 137.784C708.062 139.427 710.731 140.248 715.062 140.248Z" fill="#21DB94"/>
<path d="M657.946 106.368L674.466 106.256C682.194 106.256 687.159 107.283 689.362 109.336C691.565 111.389 692.666 116.224 692.666 123.84V125.184V126.36C692.666 129.011 692.517 131.811 692.218 134.76C691.919 137.709 690.837 140.005 688.97 141.648C687.141 143.291 684.434 144.112 680.85 144.112L676.538 144.336L671.61 144.392H663.266H662.258C660.055 144.392 657.871 144.28 655.706 144.056C653.578 143.832 651.786 143.44 650.33 142.88C648.911 142.283 647.754 141.256 646.858 139.8C645.962 138.344 645.365 136.403 645.066 133.976C644.954 132.781 644.861 131.512 644.786 130.168C644.711 128.787 644.674 127.275 644.674 125.632C644.674 124.624 644.674 123.579 644.674 122.496C644.711 121.413 644.749 120.293 644.786 119.136C644.786 117.941 645.066 116.075 645.626 113.536C646.223 110.96 647.567 109.131 649.658 108.048C651.749 106.928 654.511 106.368 657.946 106.368ZM658.898 140.248L668.53 140.416H672.002H673.178C675.941 140.416 678.61 140.285 681.186 140.024C682.455 140.024 683.538 139.8 684.434 139.352C685.33 138.867 686.021 138.213 686.506 137.392C687.402 135.861 687.85 133.584 687.85 130.56L687.962 122.888V122.048V121.32V120.704C687.962 119.995 687.943 119.323 687.906 118.688C687.869 118.016 687.794 117.381 687.682 116.784C687.533 115.067 687.141 113.76 686.506 112.864C685.871 111.968 685.05 111.371 684.042 111.072C683.034 110.773 681.951 110.568 680.794 110.456L677.434 110.288L668.642 110.232L659.962 110.4C655.706 110.4 652.906 110.96 651.562 112.08C650.218 113.163 649.546 115.757 649.546 119.864L649.378 125.464V128.208C649.378 132.912 649.882 136.104 650.89 137.784C651.898 139.427 654.567 140.248 658.898 140.248Z" fill="#21DB94"/>
<path d="M617.447 144V110.456H598.631V106.648H640.911V110.456H621.983V144H617.447Z" fill="#21DB94"/>
<path d="M533.302 144V106.648H540.862L575.302 140.416V106.648H579.838V144H572.39L537.838 110.064V144H533.302Z" fill="#21DB94"/>
<path d="M489.29 106.368L505.81 106.256C513.538 106.256 518.503 107.283 520.706 109.336C522.908 111.389 524.01 116.224 524.01 123.84V125.184V126.36C524.01 129.011 523.86 131.811 523.562 134.76C523.263 137.709 522.18 140.005 520.314 141.648C518.484 143.291 515.778 144.112 512.194 144.112L507.882 144.336L502.954 144.392H494.61H493.602C491.399 144.392 489.215 144.28 487.05 144.056C484.922 143.832 483.13 143.44 481.674 142.88C480.255 142.283 479.098 141.256 478.202 139.8C477.306 138.344 476.708 136.403 476.41 133.976C476.298 132.781 476.204 131.512 476.13 130.168C476.055 128.787 476.018 127.275 476.018 125.632C476.018 124.624 476.018 123.579 476.018 122.496C476.055 121.413 476.092 120.293 476.13 119.136C476.13 117.941 476.41 116.075 476.97 113.536C477.567 110.96 478.911 109.131 481.002 108.048C483.092 106.928 485.855 106.368 489.29 106.368ZM490.242 140.248L499.874 140.416H503.346H504.522C507.284 140.416 509.954 140.285 512.53 140.024C513.799 140.024 514.882 139.8 515.778 139.352C516.674 138.867 517.364 138.213 517.85 137.392C518.746 135.861 519.194 133.584 519.194 130.56L519.306 122.888V122.048V121.32V120.704C519.306 119.995 519.287 119.323 519.25 118.688C519.212 118.016 519.138 117.381 519.026 116.784C518.876 115.067 518.484 113.76 517.85 112.864C517.215 111.968 516.394 111.371 515.386 111.072C514.378 110.773 513.295 110.568 512.138 110.456L508.778 110.288L499.986 110.232L491.306 110.4C487.05 110.4 484.25 110.96 482.906 112.08C481.562 113.163 480.89 115.757 480.89 119.864L480.722 125.464V128.208C480.722 132.912 481.226 136.104 482.234 137.784C483.242 139.427 485.911 140.248 490.242 140.248Z" fill="#21DB94"/>
<path d="M466.744 144H462.208V106.648H466.744V144Z" fill="#21DB94"/>
<path d="M8.08492 35.4252C7.91377 35.4674 7.76519 35.5734 7.66951 35.7214C7.57384 35.8695 7.53828 36.0485 7.5701 36.2219C7.60191 36.3954 7.69871 36.5501 7.84072 36.6545C7.98274 36.759 8.15926 36.8053 8.33425 36.784C36.4746 33.5956 59.5305 39.37 67.5313 53.1181C69.8454 57.2423 71.271 61.8051 71.7167 66.5132C73.2239 82.3991 62.8473 95.1582 55.7681 103.597C34.9086 128.446 13.5589 150.479 0.212894 163.804C0.0874057 163.924 0.0119607 164.088 0.00159549 164.261C-0.00876974 164.435 0.046706 164.606 0.156966 164.741C0.267226 164.876 0.424174 164.964 0.596528 164.988C0.768882 165.012 0.943986 164.97 1.08694 164.871C17.8955 153.499 63.5757 121.565 82.3677 97.9404C86.0927 94.0752 89.2804 89.7261 91.845 85.0103C93.7191 81.2616 98.6805 71.3491 96.2937 60.3018C94.2468 52.5496 89.5983 45.7363 83.1269 41.0034C64.7131 25.7003 28.2945 30.9144 8.08492 35.4252Z" fill="#21DB94"/>
<path d="M126.838 20.702C126.615 24.1163 125.5 27.4122 123.604 30.2604C121.709 33.1086 119.099 35.4093 116.035 36.9325C112.991 38.4686 109.592 39.1677 106.188 38.9582C101.131 38.6486 96.393 36.382 92.9779 32.6387C89.5629 28.8954 87.7392 23.9694 87.8932 18.9045C88.0473 13.8395 90.167 9.03349 93.8033 5.5047C97.4395 1.97591 102.307 0.00157226 107.373 0C107.768 0 108.163 0.0224139 108.584 0.0448278C113.74 0.370713 118.557 2.72775 121.978 6.59937C125.4 10.471 127.148 15.5442 126.838 20.702Z" fill="#21DB94"/>
</g>
</g>
<defs>
<clipPath id="clip0_1093_14421">
<rect width="797" height="165" fill="white"/>
</clipPath>
</defs>
</svg>
